<svg id="Layer_1" height="512" viewBox="0 0 512 512" width="512" xmlns="http://www.w3.org/2000/svg" data-name="Layer 1"><path d="m460.767 230.659h-137.059l3.618 30.627h128.992z"/><path d="m208.156 79h-138.72a4.42 4.42 0 0 0 -4.417 4.414v13.9h143.137z"/><path d="m54.33 142.177h162.87a5.325 5.325 0 1 0 0-10.65h-147.764a14.431 14.431 0 0 1 -14.417-14.414v-33.7a14.431 14.431 0 0 1 14.417-14.413h147.764a5.334 5.334 0 0 0 5.329-5.326v-.449a5.333 5.333 0 0 0 -5.329-5.325h-162.87a10.427 10.427 0 0 0 -10.418 10.415v63.449a10.426 10.426 0 0 0 10.418 10.413z"/><path d="m51.724 257.212h66.876v-15.412h-48.382a16.48 16.48 0 0 1 -16.464-16.46v-41.02a16.481 16.481 0 0 1 16.464-16.46h179.875a7.58 7.58 0 0 0 7.574-7.57v-.546a7.581 7.581 0 0 0 -7.574-7.571h-198.264a13.782 13.782 0 0 0 -13.769 13.768v77.239a13.866 13.866 0 0 0 13.664 14.032z"/><path d="m65.019 117.113a4.42 4.42 0 0 0 4.417 4.414h138.72v-14.213h-143.137z"/><path d="m454.865 271.286h-126.357l8.462 71.631h107.49zm-47.1 52.568c-6.826 7.018-15.592 11.185-23.5 11.185h-.256a18.045 18.045 0 0 1 -13.395-5.615c-8.5-9.15-5.8-25.933 6.138-38.208 6.9-7.095 15.8-11.314 23.756-11.184a18.039 18.039 0 0 1 13.393 5.615c8.499 9.153 5.804 25.931-6.137 38.207z"/><path d="m335.263 192.572h118.11l-.256-13.641h-117.854z"/><path d="m391.351 302.222a20.571 20.571 0 0 0 11.161-9.554l1.159-2.09a10.1 10.1 0 0 0 -3.278-.547h-.147c-5.181 0-11.421 3.114-16.328 8.157-4.763 4.9-7.337 10.342-8.038 15.023a26.224 26.224 0 0 1 13.065-10.151z"/><path d="m437.08 393.716 5.927-40.799h-104.856l4.82 40.799z"/><path d="m394.639 311.667-2.406.837a16.367 16.367 0 0 0 -8.808 7.484l-2.549 4.514a10.12 10.12 0 0 0 3.246.537h.147c5.181 0 11.421-3.114 16.327-8.157s7.516-10.7 8.114-15.48a30.263 30.263 0 0 1 -14.071 10.265z"/><path d="m240.173 177.864h-169.955a6.47 6.47 0 0 0 -6.464 6.46v3.607h176.419z"/><path d="m317.472 209.547v11.112h151.676v-11.112a6.983 6.983 0 0 0 -6.975-6.975h-137.726a6.983 6.983 0 0 0 -6.975 6.975z"/><path d="m63.142 355.183a8.642 8.642 0 0 0 8.635 8.631h203.093v-12.8h-211.728z"/><path d="m274.87 297.763h-203.093a8.642 8.642 0 0 0 -8.635 8.63v5.367h211.728z"/><path d="m49.905 393.716h235.818a9.951 9.951 0 1 0 0-19.9h-213.946a18.654 18.654 0 0 1 -18.635-18.631v-48.79a18.654 18.654 0 0 1 18.635-18.63h213.946a9.964 9.964 0 0 0 9.955-9.951v-.649a9.964 9.964 0 0 0 -9.955-9.951h-110.474v12.986a6.229 6.229 0 0 1 -9.865 5.066l-18.919-13.574-17.884 13.427a6.234 6.234 0 0 1 -9.977-4.984v-12.923h-68.7a17.34 17.34 0 0 0 -17.324 17.317v91.871a17.34 17.34 0 0 0 17.325 17.316z"/><path d="m63.142 321.76h211.729v19.251h-211.729z"/><path d="m473 403.716h-434a23.026 23.026 0 0 0 -23 23v4.805h480v-4.805a23.026 23.026 0 0 0 -23-23z"/><path d="m16 441.521h480v17h-480z"/><path d="m63.754 225.344a6.469 6.469 0 0 0 6.464 6.46h48.382v-9.5h-54.846z"/><path d="m250.093 256.944a7.57 7.57 0 1 0 0-15.14h-74.844v15.408h74.844z"/><path d="m142.358 262.267a6.738 6.738 0 0 1 8.009-.087l14.882 10.678v-74.927h-36.649v74.662z"/><path d="m63.754 197.931h54.851v14.376h-54.851z"/><path d="m175.249 197.931h64.924v14.376h-64.924z"/><path d="m175.249 222.307h64.924v9.497h-64.924z"/></svg>