<svg id="Outline" height="512" viewBox="0 0 512 512" width="512" xmlns="http://www.w3.org/2000/svg"><path d="m88 72h48a8 8 0 0 0 0-16h-48a8 8 0 0 0 0 16z"/><path d="m72 104h80a8 8 0 0 0 0-16h-80a8 8 0 0 0 0 16z"/><path d="m152 168h-32a8 8 0 0 0 -8 8v48a8 8 0 0 0 8 8h32a8 8 0 0 0 8-8v-48a8 8 0 0 0 -8-8zm-8 48h-16v-32h16z"/><path d="m232 72h48a8 8 0 0 0 0-16h-48a8 8 0 0 0 0 16z"/><path d="m216 104h80a8 8 0 0 0 0-16h-80a8 8 0 0 0 0 16z"/><path d="m296 168h-32a8 8 0 0 0 -8 8v48a8 8 0 0 0 8 8h32a8 8 0 0 0 8-8v-48a8 8 0 0 0 -8-8zm-8 48h-16v-32h16z"/><path d="m376 72h48a8 8 0 0 0 0-16h-48a8 8 0 0 0 0 16z"/><path d="m360 104h80a8 8 0 0 0 0-16h-80a8 8 0 0 0 0 16z"/><path d="m440 168h-32a8 8 0 0 0 -8 8v48a8 8 0 0 0 8 8h32a8 8 0 0 0 8-8v-48a8 8 0 0 0 -8-8zm-8 48h-16v-32h16z"/><path d="m88 304h48a8 8 0 0 0 0-16h-48a8 8 0 0 0 0 16z"/><path d="m72 336h80a8 8 0 0 0 0-16h-80a8 8 0 0 0 0 16z"/><path d="m152 400h-32a8 8 0 0 0 -8 8v48a8 8 0 0 0 8 8h32a8 8 0 0 0 8-8v-48a8 8 0 0 0 -8-8zm-8 48h-16v-32h16z"/><path d="m232 304h48a8 8 0 0 0 0-16h-48a8 8 0 0 0 0 16z"/><path d="m304 328a8 8 0 0 0 -8-8h-80a8 8 0 0 0 0 16h80a8 8 0 0 0 8-8z"/><path d="m296 400h-32a8 8 0 0 0 -8 8v48a8 8 0 0 0 8 8h32a8 8 0 0 0 8-8v-48a8 8 0 0 0 -8-8zm-8 48h-16v-32h16z"/><path d="m480 24a8 8 0 0 0 -8-8h-432a8 8 0 0 0 -8 8v464a8 8 0 0 0 8 8h432a8 8 0 0 0 8-8zm-16 8v216h-128v-216zm-272 232h128v216h-128zm128-232v216h-128v-216zm-144 0v216h-128v-216zm0 448h-128v-216h128zm288 0h-128v-216h128z"/><path d="m376 304h48a8 8 0 0 0 0-16h-48a8 8 0 0 0 0 16z"/><path d="m360 336h80a8 8 0 0 0 0-16h-80a8 8 0 0 0 0 16z"/><path d="m440 400h-32a8 8 0 0 0 -8 8v48a8 8 0 0 0 8 8h32a8 8 0 0 0 8-8v-48a8 8 0 0 0 -8-8zm-8 48h-16v-32h16z"/></svg>